# xmcd CD database file
# Copyright (C) 1993-1998 Ti Kan
#
# Track frame offsets:
#	182
#	21782
#	30857
#	48182
#	66157
#	77657
#	88182
#	99107
#	113432
#	124607
#	142932
#	156857
#
# Disc length: 2244 seconds
#
# Revision: 0
# Processed by: cddbd v1.4b41PL1 Copyright (c) Steve Scherf et al.
# Submitted via: CDmax 1.5
#
DISCID=8108c20c
DTITLE=George and Lucky Riders - BEST OF GEORGE and LUCKY RIDERS
DYEAR=1900
DGENRE=
TTITLE0=Backdoors Of The Honky Tonks
TTITLE1=Tequila Blues
TTITLE2=Lola
TTITLE3=Separate Lives
TTITLE4=Broken Shattered Wings
TTITLE5=I've Been Honky Tonkin' Too Long
TTITLE6=You're Like A Star
TTITLE7=Tequila Sheila
TTITLE8=Barstool Cradle
TTITLE9=Old Trains And Hobos
TTITLE10=A Place To Hide
TTITLE11=Selfmade Man
EXTD=
EXTT0=
EXTT1=
EXTT2=
EXTT3=
EXTT4=
EXTT5=
EXTT6=
EXTT7=
EXTT8=
EXTT9=
EXTT10=
EXTT11=
PLAYORDER=
